RBDS03runT45_grf
version=1
nRows=12
nColumns=19
inDegrees=no
endheader
time	ground_force_r_vx	ground_force_r_vy	ground_force_r_vz	ground_force_r_px	ground_force_r_py	ground_force_r_pz	ground_force_r_mx	ground_force_r_my	ground_force_r_mz	ground_force_l_vx	ground_force_l_vy	ground_force_l_vz	ground_force_l_px	ground_force_l_py	ground_force_l_pz	ground_force_l_mx	ground_force_l_my	ground_force_l_mz
      7.49900000	   -271.82686635	   1391.08107905	      3.37365987	      2.61547471	      0.00000000	      1.07217899	     -0.00000000	     10.63984720	     -0.00000000	      0.00000000	      0.00000000	      0.00000000	      0.00000000	      0.00000000	      0.00000000	      0.00000000	      0.00000000	      0.00000000
      7.50000000	   -274.69910012	   1405.69060239	      2.90037043	      2.61367961	      0.00000000	      1.07224027	     -0.00000000	     10.75040689	     -0.00000000	      0.00000000	      0.00000000	      0.00000000	      0.00000000	      0.00000000	      0.00000000	      0.00000000	      0.00000000	      0.00000000
      7.50100000	   -276.82717390	   1419.05649601	      2.37600823	      2.61154596	      0.00000000	      1.07231278	     -0.00000000	     10.88803651	     -0.00000000	      0.00000000	      0.00000000	      0.00000000	      0.00000000	      0.00000000	      0.00000000	      0.00000000	      0.00000000	      0.00000000
      7.50200000	   -278.95524768	   1432.42238963	      1.85164604	      2.60941231	      0.00000000	      1.07238528	     -0.00000000	     11.02566614	     -0.00000000	      0.00000000	      0.00000000	      0.00000000	      0.00000000	      0.00000000	      0.00000000	      0.00000000	      0.00000000	      0.00000000
      7.50300000	   -281.08332146	   1445.78828325	      1.32728384	      2.60727865	      0.00000000	      1.07245779	     -0.00000000	     11.16329576	     -0.00000000	      0.00000000	      0.00000000	      0.00000000	      0.00000000	      0.00000000	      0.00000000	      0.00000000	      0.00000000	      0.00000000
      7.50400000	   -282.63810816	   1458.43876144	      0.78201277	      2.60492847	      0.00000000	      1.07253520	     -0.00000000	     11.31857637	     -0.00000000	      0.00000000	      0.00000000	      0.00000000	      0.00000000	      0.00000000	      0.00000000	      0.00000000	      0.00000000	      0.00000000
      7.50500000	   -283.90625133	   1470.73153191	      0.22628726	      2.60247002	      0.00000000	      1.07261507	     -0.00000000	     11.48268247	     -0.00000000	      0.00000000	      0.00000000	      0.00000000	      0.00000000	      0.00000000	      0.00000000	      0.00000000	      0.00000000	      0.00000000
      7.50600000	   -285.17439450	   1483.02430238	     -0.32943825	      2.60001157	      0.00000000	      1.07269494	     -0.00000000	     11.64678858	     -0.00000000	      0.00000000	      0.00000000	      0.00000000	      0.00000000	      0.00000000	      0.00000000	      0.00000000	      0.00000000	      0.00000000
      7.50700000	   -286.12312883	   1495.00905706	     -0.88792944	      2.59745055	      0.00000000	      1.07277587	     -0.00000000	     11.81914221	     -0.00000000	      0.00000000	      0.00000000	      0.00000000	      0.00000000	      0.00000000	      0.00000000	      0.00000000	      0.00000000	      0.00000000
      7.50800000	   -286.43304550	   1506.37778016	     -1.45195202	      2.59468436	      0.00000000	      1.07285891	     -0.00000000	     12.00799089	     -0.00000000	      0.00000000	      0.00000000	      0.00000000	      0.00000000	      0.00000000	      0.00000000	      0.00000000	      0.00000000	      0.00000000
      7.50900000	   -286.74296216	   1517.74650326	     -2.01597459	      2.59191817	      0.00000000	      1.07294195	     -0.00000000	     12.19683957	     -0.00000000	      0.00000000	      0.00000000	      0.00000000	      0.00000000	      0.00000000	      0.00000000	      0.00000000	      0.00000000	      0.00000000
      7.51000000	   -287.05287882	   1529.11522637	     -2.57999716	      2.58915198	      0.00000000	      1.07302499	     -0.00000000	     12.38568825	     -0.00000000	      0.00000000	      0.00000000	      0.00000000	      0.00000000	      0.00000000	      0.00000000	      0.00000000	      0.00000000	      0.00000000
